<mxfile host="app.diagrams.net" modified="2024-01-02T18:43:53.615Z" agent="Mozilla/5.0 (Macintosh; Intel Mac OS X 10_15_7) AppleWebKit/537.36 (KHTML, like Gecko) Chrome/120.0.0.0 Safari/537.36" version="22.1.16" etag="K4FfalBPzjyrGxeq1S3L" type="github">
  <diagram name="PÃ¡gina-1" id="ZJe9iLYbtic6P_6E3L7c">
    <mxGraphModel>
      <root>
        <mxCell id="0" />
        <mxCell id="1" parent="0" />
      </root>
    </mxGraphModel>
  </diagram>
</mxfile>
